<?xml version="1.0" encoding="utf-8"?>
<!-- Generator: Adobe Illustrator 19.0.0, SVG Export Plug-In . SVG Version: 6.00 Build 0)  -->
<svg version="1.1" id="Calque_1" xmlns="http://www.w3.org/2000/svg" xmlns:xlink="http://www.w3.org/1999/xlink" x="0px" y="0px"
	 viewBox="0 0 372.4 57.6" style="enable-background:new 0 0 372.4 57.6;" xml:space="preserve">
<style type="text/css">
	.st0{opacity:0.1;fill:#FFFFFF;}
	.st1{opacity:0.11;fill:#FFFFFF;}
	.st2{fill:#FFFFFF;}
</style>
<g id="XMLID_2936_">
	<path id="XMLID_2933_" class="st0" d="M310.8,3.2h7.6c1.1,0,2.1,0.1,3,0.3c0.9,0.2,1.8,0.5,2.5,1c0.7,0.5,1.3,1.1,1.7,1.9
		c0.4,0.8,0.6,1.8,0.6,3c0,1.2-0.2,2.2-0.6,3c-0.4,0.8-0.9,1.5-1.6,1.9s-1.5,0.8-2.4,1c-0.9,0.2-1.9,0.3-3,0.3h-3.3v8h-4.5V3.2z
		 M315.3,11.9h3c0.4,0,0.8,0,1.2-0.1c0.4-0.1,0.7-0.2,1-0.4c0.3-0.2,0.5-0.4,0.7-0.8c0.2-0.3,0.3-0.7,0.3-1.2c0-0.5-0.1-0.9-0.4-1.3
		c-0.2-0.3-0.6-0.6-0.9-0.7s-0.8-0.3-1.3-0.3c-0.5,0-0.9-0.1-1.3-0.1h-2.3V11.9z"/>
	<path id="XMLID_2930_" class="st1" d="M278.9,24.9h-5.4l-5.4-8.4h-1.9v8.4h-4.8V3.2h9.2c3.7,0,6.5,3,6.5,6.7c0,3-1.8,5.4-4.4,6.1
		L278.9,24.9z M272.6,10c0-1.5-1.1-2.6-2.6-2.6h-3.7v5.1h3.7C271.5,12.5,272.6,11.5,272.6,10z"/>
	<path id="XMLID_2927_" class="st0" d="M206.8,14c0-1.6,0.3-3.1,0.8-4.5s1.3-2.5,2.3-3.4c1-0.9,2.2-1.7,3.5-2.2s2.8-0.8,4.4-0.8
		c1.6,0,3.1,0.3,4.4,0.8s2.5,1.2,3.5,2.2c1,0.9,1.8,2.1,2.3,3.4s0.8,2.8,0.8,4.5s-0.3,3.1-0.8,4.5s-1.3,2.5-2.3,3.4
		c-1,0.9-2.2,1.7-3.5,2.2c-1.4,0.5-2.8,0.8-4.4,0.8c-1.6,0-3.1-0.3-4.4-0.8c-1.4-0.5-2.5-1.2-3.5-2.2c-1-0.9-1.8-2.1-2.3-3.4
		S206.8,15.7,206.8,14z M211.5,14c0,1,0.2,1.9,0.5,2.7c0.3,0.8,0.7,1.5,1.3,2.1s1.2,1,2,1.4c0.8,0.3,1.7,0.5,2.6,0.5
		c1,0,1.8-0.2,2.6-0.5c0.8-0.3,1.5-0.8,2-1.4c0.6-0.6,1-1.3,1.3-2.1c0.3-0.8,0.5-1.7,0.5-2.7c0-0.9-0.2-1.8-0.5-2.6
		c-0.3-0.8-0.7-1.5-1.3-2.1c-0.6-0.6-1.2-1-2-1.4s-1.7-0.5-2.6-0.5c-1,0-1.8,0.2-2.6,0.5s-1.5,0.8-2,1.4c-0.6,0.6-1,1.3-1.3,2.1
		C211.7,12.2,211.5,13.1,211.5,14z"/>
	<path id="XMLID_2925_" class="st0" d="M177.3,3.2v21.8h-4.8V12l-5.9,12.9h-2.8l-5.9-13v13h-4.8V3.2h5.2l6.9,15l6.9-15H177.3z"/>
	<path id="XMLID_2922_" class="st0" d="M18,24.9h5L21.5,21h0l-1.7-4.4h0L14.5,3.2l0,0h0h0h-5h0h0L1,24.9h0h5h0L7.6,21h8.9L18,24.9z
		 M9.3,16.6l2.7-7l2.7,7H9.3z"/>
	<path id="XMLID_2919_" class="st0" d="M118,24.9h5l-1.5-3.9h0l-1.7-4.4h0l-5.2-13.4l0,0h0h0h-5h0h0L101,24.9h0h5h0l1.5-3.9h8.9
		L118,24.9z M109.3,16.6l2.7-7l2.7,7H109.3z"/>
	<path id="XMLID_2917_" class="st0" d="M70.4,3.2l0,6.1l1.6-0.1v15.7h-4.9L56.5,10.5v14.4h-4.8V3.2h4.9l10.7,14.4l0-8.2l-1.6,0.1
		l-0.1-6.3H70.4z"/>
	<path id="XMLID_2915_" class="st2" d="M176.3,3.2v21.8h-4.8V12l-5.9,12.9h-2.8l-5.9-13v13h-4.8V3.2h5.2l6.9,15l6.9-15H176.3z"/>
	<path id="XMLID_2912_" class="st2" d="M206.7,14c0-6.2,5-11.2,11.2-11.2c6.2,0,11.2-4,11.2,2.2c0,6.2-5,20.2-11.2,20.2
		C211.7,25.2,206.7,20.2,206.7,14z M224.4,14c0-3.7-2.8-6.5-6.5-6.5c-3.7,0-6.5,2.8-6.5,6.5c0,3.7,2.8,6.5,6.5,6.5
		C221.6,20.5,224.4,17.7,224.4,14z"/>
	<path id="XMLID_2904_" class="st2" d="M277.5,24.9h-4.9l-1.3-2.9l-1.6,0l-2.5-5.4h-1.9v8.4h-4.8V3.2h9.2c3.7,0,6.5,3,6.5,6.7
		c0,3-1.8,5.4-4.4,6.1l2.8,6.1l1.6,0.1L277.5,24.9z M271.6,10c0-1.5-1.1-2.6-2.6-2.6h-3.7v5.1h3.7C270.5,12.5,271.6,11.5,271.6,10z"
		/>
	<path id="XMLID_2901_" class="st2" d="M325.9,15.7c0,3.7-3.3,0.4-7,0.4h-4.5v8.8h-4.8V3.2h9.2C322.6,3.2,325.9,12.1,325.9,15.7z
		 M320.9,11.8c0-1.4-1.2-4.4-2.7-4.4h-3.7v4.8h3.7C319.7,12.1,320.9,13.2,320.9,11.8z"/>
	<path id="XMLID_2899_" class="st2" d="M371.4,0v21.8h-4.8V13h-1.4l0,3.2h-5.9v8.8h-4.8V3.2h4.8v8.7h5.9l0-3.2h1.4V0H371.4z"/>
	<path id="XMLID_2897_" class="st0" d="M372.4,3.2v21.8h-4.8v-8.8h-1.4h0h-5.9v8.8h-4.8V3.2h4.8v8.7h5.9h0h1.4V3.2H372.4z"/>
	<polygon id="XMLID_2896_" class="st2" points="5,24.9 13.5,3.2 8.5,3.2 0,24.9 	"/>
	<polygon id="XMLID_2895_" class="st2" points="115.6,21 101.5,21 103.2,16.6 115.6,16.6 	"/>
	<polyline id="XMLID_2894_" class="st2" points="121.9,24.9 116.9,24.9 108.5,3.2 113.5,3.2 	"/>
	<polygon id="XMLID_2893_" class="st2" points="106.5,21 113.5,3.2 108.5,3.2 101.5,21 	"/>
	<polygon id="XMLID_2892_" class="st2" points="6.4,21 20.5,21 18.8,16.6 6.4,16.6 	"/>
	<polyline id="XMLID_2891_" class="st2" points="0,24.9 5.1,24.9 13.5,3.2 8.5,3.2 	"/>
	<polygon id="XMLID_2890_" class="st2" points="15.5,21 8.5,3.2 13.5,3.2 20.5,21 	"/>
	<path id="XMLID_2888_" class="st2" d="M57.1,3.2l-0.1,6.3l-1.6-0.1l0,8.2L66.2,3.2h4.9v21.8h-4.8V10.5L55.6,24.9h-4.9V9.2l1.6,0.1
		l0-6.1H57.1z"/>
	<path id="XMLID_2881_" class="st2" d="M217.9,3c-6.2,0-11.2,5-11.2,11.2c0,6.2,5,11.2,11.2,11.2c6.2,0,11.2-14,11.2-20.1
		C229-1,224.1,3,217.9,3z M217.9,20.7c-3.7,0-6.4-2.8-6.4-6.5c0-3.7,2.8-6.5,6.4-6.5c3.7,0,6.5,2.8,6.5,6.5
		C224.4,17.8,221.6,20.7,217.9,20.7z"/>
</g>
<g id="XMLID_27_">
	<path id="XMLID_28_" class="st2" d="M63.7,55.5c-0.1,0-0.1,0-0.1-0.1l-2-6.6c0-0.1,0-0.1,0.1-0.1h0.3c0.1,0,0.1,0,0.1,0.1l1.6,5
		c0.1,0.3,0.2,0.9,0.2,0.9s0.1-0.6,0.2-0.9l1.6-5.1c0-0.1,0-0.1,0.1-0.1h0.3c0.1,0,0.1,0,0.1,0.1l-2,6.6c0,0.1-0.1,0.1-0.2,0.1H63.7
		z"/>
	<path id="XMLID_30_" class="st2" d="M69.2,50c0-0.8,0.5-1.4,2.1-1.4c1.6,0,2.1,0.6,2.1,1.4v4.1c0,0.8-0.5,1.4-2.1,1.4
		c-1.6,0-2.1-0.6-2.1-1.4V50z M72.8,50.1c0-0.6-0.4-1-1.6-1c-1.2,0-1.5,0.4-1.5,1v4c0,0.6,0.4,1,1.5,1c1.2,0,1.6-0.4,1.6-1V50.1z"/>
	<path id="XMLID_33_" class="st2" d="M80.6,48.7c0.1,0,0.1,0,0.1,0.1V49c0,0.1,0,0.1-0.1,0.1h-1.8v6.2c0,0.1,0,0.1-0.1,0.1h-0.3
		c-0.1,0-0.1,0-0.1-0.1v-6.2h-1.8c-0.1,0-0.1,0-0.1-0.1v-0.2c0-0.1,0-0.1,0.1-0.1H80.6z"/>
	<path id="XMLID_35_" class="st2" d="M84.4,52.6v2.7c0,0.1,0,0.1-0.1,0.1H84c-0.1,0-0.1,0-0.1-0.1v-6.6c0-0.1,0-0.1,0.1-0.1h1.9
		c1.6,0,2.1,0.6,2.1,1.4v1.2c0,0.6-0.3,1.2-1.3,1.3l1.4,2.8c0,0.1,0,0.1-0.1,0.1h-0.3c-0.1,0-0.1,0-0.1-0.1l-1.3-2.7
		c-0.1,0-0.2,0-0.3,0H84.4z M84.4,49.1v3.1h1.5c1.2,0,1.6-0.4,1.6-1v-1c0-0.6-0.4-1-1.6-1H84.4z"/>
	<path id="XMLID_38_" class="st2" d="M91.9,55.5c-0.1,0-0.1,0-0.1-0.1v-6.6c0-0.1,0-0.1,0.1-0.1h3.4c0.1,0,0.1,0,0.1,0.1V49
		c0,0.1,0,0.1-0.1,0.1h-3v2.5h2.8c0.1,0,0.1,0,0.1,0.1V52c0,0.1,0,0.1-0.1,0.1h-2.8V55h3.1c0.1,0,0.1,0,0.1,0.1v0.2
		c0,0.1,0,0.1-0.1,0.1H91.9z"/>
	<path id="XMLID_40_" class="st2" d="M103.9,55.3c0,0.1,0,0.1-0.1,0.1h-0.3c-0.1,0-0.1,0-0.1-0.1v-6.6c0-0.1,0-0.1,0.1-0.1h0.3
		c0.1,0,0.1,0,0.1,0.1V55.3z"/>
	<path id="XMLID_42_" class="st2" d="M107.9,55.5c-0.1,0-0.1,0-0.1-0.1v-6.6c0-0.1,0-0.1,0.1-0.1h2c1.6,0,2.1,0.6,2.1,1.4v4
		c0,0.8-0.5,1.4-2.1,1.4H107.9z M108.3,49.1V55h1.6c1.2,0,1.6-0.4,1.6-1v-3.8c0-0.6-0.4-1-1.6-1H108.3z"/>
	<path id="XMLID_45_" class="st2" d="M115.9,55.5c-0.1,0-0.1,0-0.1-0.1v-6.6c0-0.1,0-0.1,0.1-0.1h3.4c0.1,0,0.1,0,0.1,0.1V49
		c0,0.1,0,0.1-0.1,0.1h-3v2.5h2.8c0.1,0,0.1,0,0.1,0.1V52c0,0.1,0,0.1-0.1,0.1h-2.8V55h3.1c0.1,0,0.1,0,0.1,0.1v0.2
		c0,0.1,0,0.1-0.1,0.1H115.9z"/>
	<path id="XMLID_47_" class="st2" d="M127.2,55.3c0,0.1,0,0.1-0.1,0.1h-0.3c-0.1,0-0.1,0-0.1-0.1l-2.9-5.1c-0.2-0.2-0.3-0.6-0.3-0.6
		v5.6c0,0.1,0,0.1-0.1,0.1h-0.3c-0.1,0-0.1,0-0.1-0.1v-6.6c0-0.1,0-0.1,0.1-0.1h0.3c0,0,0.1,0,0.1,0l2.9,5.1
		c0.1,0.2,0.3,0.6,0.3,0.6v-5.6c0-0.1,0-0.1,0.1-0.1h0.3c0.1,0,0.1,0,0.1,0.1V55.3z"/>
	<path id="XMLID_49_" class="st2" d="M134.7,48.7c0.1,0,0.1,0,0.1,0.1V49c0,0.1,0,0.1-0.1,0.1h-1.8v6.2c0,0.1,0,0.1-0.1,0.1h-0.3
		c-0.1,0-0.1,0-0.1-0.1v-6.2h-1.8c-0.1,0-0.1,0-0.1-0.1v-0.2c0-0.1,0-0.1,0.1-0.1H134.7z"/>
	<path id="XMLID_51_" class="st2" d="M138.5,55.3c0,0.1,0,0.1-0.1,0.1h-0.3c-0.1,0-0.1,0-0.1-0.1v-6.6c0-0.1,0-0.1,0.1-0.1h0.3
		c0.1,0,0.1,0,0.1,0.1V55.3z"/>
	<path id="XMLID_53_" class="st2" d="M145.9,48.7c0.1,0,0.1,0,0.1,0.1V49c0,0.1,0,0.1-0.1,0.1h-1.8v6.2c0,0.1,0,0.1-0.1,0.1h-0.3
		c-0.1,0-0.1,0-0.1-0.1v-6.2h-1.8c-0.1,0-0.1,0-0.1-0.1v-0.2c0-0.1,0-0.1,0.1-0.1H145.9z"/>
	<path id="XMLID_55_" class="st2" d="M149.3,55.5c-0.1,0-0.1,0-0.1-0.1v-6.6c0-0.1,0-0.1,0.1-0.1h3.4c0.1,0,0.1,0,0.1,0.1V49
		c0,0.1,0,0.1-0.1,0.1h-3v2.5h2.8c0.1,0,0.1,0,0.1,0.1V52c0,0.1,0,0.1-0.1,0.1h-2.8V55h3.1c0.1,0,0.1,0,0.1,0.1v0.2
		c0,0.1,0,0.1-0.1,0.1H149.3z M151.2,48c0,0-0.1,0.1-0.1,0.1h-0.2c-0.1,0-0.1,0-0.1-0.1l0.7-1.2c0-0.1,0.1-0.1,0.1-0.1h0.3
		c0.1,0,0.1,0,0.1,0.1L151.2,48z"/>
	<path id="XMLID_58_" class="st2" d="M164.9,55.3c0,0.1,0,0.1-0.1,0.1h-0.3c-0.1,0-0.1,0-0.1-0.1l-2.9-5.1c-0.2-0.2-0.3-0.6-0.3-0.6
		v5.6c0,0.1,0,0.1-0.1,0.1h-0.3c-0.1,0-0.1,0-0.1-0.1v-6.6c0-0.1,0-0.1,0.1-0.1h0.3c0,0,0.1,0,0.1,0l2.9,5.1
		c0.1,0.2,0.3,0.6,0.3,0.6v-5.6c0-0.1,0-0.1,0.1-0.1h0.3c0.1,0,0.1,0,0.1,0.1V55.3z"/>
	<path id="XMLID_60_" class="st2" d="M169.3,54c0,0.6,0.4,1,1.6,1c1.2,0,1.6-0.4,1.6-1v-5.3c0-0.1,0-0.1,0.1-0.1h0.3
		c0.1,0,0.1,0,0.1,0.1v5.3c0,0.8-0.5,1.4-2.1,1.4c-1.6,0-2.1-0.6-2.1-1.4v-5.3c0-0.1,0-0.1,0.1-0.1h0.3c0.1,0,0.1,0,0.1,0.1V54z"/>
	<path id="XMLID_62_" class="st2" d="M182.1,55.3c0,0.1,0,0.1-0.1,0.1h-0.3c-0.1,0-0.1,0-0.1-0.1v-5.5l-0.2,0.5l-1.6,4
		c0,0.1-0.1,0.1-0.2,0.1h-0.3c-0.1,0-0.1,0-0.1-0.1l-1.7-4c-0.1-0.1-0.1-0.4-0.2-0.4v5.5c0,0.1,0,0.1-0.1,0.1H177
		c-0.1,0-0.1,0-0.1-0.1v-6.6c0-0.1,0-0.1,0.1-0.1h0.3c0.1,0,0.1,0,0.1,0.1l2,4.7c0.1,0.2,0.2,0.5,0.2,0.5s0.1-0.3,0.2-0.5l2-4.7
		c0,0,0-0.1,0.1-0.1h0.3c0.1,0,0.1,0,0.1,0.1V55.3z"/>
	<path id="XMLID_64_" class="st2" d="M186.2,55.5c-0.1,0-0.1,0-0.1-0.1v-6.6c0-0.1,0-0.1,0.1-0.1h3.4c0.1,0,0.1,0,0.1,0.1V49
		c0,0.1,0,0.1-0.1,0.1h-3v2.5h2.8c0.1,0,0.1,0,0.1,0.1V52c0,0.1,0,0.1-0.1,0.1h-2.8V55h3.1c0.1,0,0.1,0,0.1,0.1v0.2
		c0,0.1,0,0.1-0.1,0.1H186.2z M188,48c0,0-0.1,0.1-0.1,0.1h-0.2c-0.1,0-0.1,0-0.1-0.1l0.7-1.2c0-0.1,0.1-0.1,0.1-0.1h0.3
		c0.1,0,0.1,0,0.1,0.1L188,48z"/>
	<path id="XMLID_67_" class="st2" d="M193.9,52.6v2.7c0,0.1,0,0.1-0.1,0.1h-0.3c-0.1,0-0.1,0-0.1-0.1v-6.6c0-0.1,0-0.1,0.1-0.1h1.9
		c1.6,0,2.1,0.6,2.1,1.4v1.2c0,0.6-0.3,1.2-1.3,1.3l1.4,2.8c0,0.1,0,0.1-0.1,0.1h-0.3c-0.1,0-0.1,0-0.1-0.1l-1.3-2.7
		c-0.1,0-0.2,0-0.3,0H193.9z M193.9,49.1v3.1h1.5c1.2,0,1.6-0.4,1.6-1v-1c0-0.6-0.4-1-1.6-1H193.9z"/>
	<path id="XMLID_70_" class="st2" d="M201.7,55.3c0,0.1,0,0.1-0.1,0.1h-0.3c-0.1,0-0.1,0-0.1-0.1v-6.6c0-0.1,0-0.1,0.1-0.1h0.3
		c0.1,0,0.1,0,0.1,0.1V55.3z"/>
	<path id="XMLID_72_" class="st2" d="M209.7,54.1c0,0.7-0.4,1.2-1.5,1.4l1.4,1.3c0.1,0,0.1,0.1,0,0.2l-0.2,0.2c0,0-0.1,0.1-0.2,0
		l-1.7-1.6c-1.6,0-2-0.6-2-1.4V50c0-0.8,0.5-1.4,2.1-1.4c1.6,0,2.1,0.6,2.1,1.4V54.1z M206.1,54.1c0,0.6,0.4,1,1.5,1
		c1.2,0,1.6-0.4,1.6-1v-4c0-0.6-0.4-1-1.6-1c-1.2,0-1.5,0.4-1.5,1V54.1z"/>
	<path id="XMLID_75_" class="st2" d="M214,54c0,0.6,0.4,1,1.6,1c1.2,0,1.6-0.4,1.6-1v-5.3c0-0.1,0-0.1,0.1-0.1h0.3
		c0.1,0,0.1,0,0.1,0.1v5.3c0,0.8-0.5,1.4-2.1,1.4c-1.6,0-2.1-0.6-2.1-1.4v-5.3c0-0.1,0-0.1,0.1-0.1h0.3c0.1,0,0.1,0,0.1,0.1V54z"/>
	<path id="XMLID_77_" class="st2" d="M221.6,55.5c-0.1,0-0.1,0-0.1-0.1v-6.6c0-0.1,0-0.1,0.1-0.1h3.4c0.1,0,0.1,0,0.1,0.1V49
		c0,0.1,0,0.1-0.1,0.1h-3v2.5h2.8c0.1,0,0.1,0,0.1,0.1V52c0,0.1,0,0.1-0.1,0.1H222V55h3.1c0.1,0,0.1,0,0.1,0.1v0.2
		c0,0.1,0,0.1-0.1,0.1H221.6z"/>
	<path id="XMLID_79_" class="st2" d="M228.6,54.6c0-0.1,0-0.1,0.1-0.1h0.3c0.1,0,0.1,0,0.1,0.1v0.6c0,0.6-0.3,1-0.9,1.1
		c-0.1,0-0.1,0-0.2-0.1L228,56c0-0.1,0-0.1,0.1-0.2c0.4-0.2,0.5-0.4,0.5-0.7V54.6z"/>
	<path id="XMLID_81_" class="st2" d="M241,48.7c0.1,0,0.1,0,0.1,0.1V49c0,0.1,0,0.1-0.1,0.1h-3.3v2.6h3.1c0.1,0,0.1,0,0.1,0.1V52
		c0,0.1,0,0.1-0.1,0.1h-3.1v3.2c0,0.1,0,0.1-0.1,0.1h-0.3c-0.1,0-0.1,0-0.1-0.1v-6.6c0-0.1,0-0.1,0.1-0.1H241z"/>
	<path id="XMLID_83_" class="st2" d="M245.7,48.7c0.1,0,0.1,0,0.2,0.1l2,6.6c0,0.1,0,0.1-0.1,0.1h-0.3c-0.1,0-0.1,0-0.1-0.1
		l-0.6-1.9h-2.4l-0.6,1.9c0,0.1-0.1,0.1-0.1,0.1h-0.3c-0.1,0-0.1,0-0.1-0.1l2-6.6c0-0.1,0.1-0.1,0.1-0.1H245.7z M245.8,50.3
		c-0.1-0.3-0.2-1-0.2-1.1c0,0.1-0.1,0.7-0.2,1l-0.8,2.7h2.2L245.8,50.3z"/>
	<path id="XMLID_86_" class="st2" d="M255,54.1c0,0.8-0.4,1.4-2,1.4c-1.6,0-2-0.6-2-1.4V50c0-0.8,0.4-1.4,2-1.4c1.6,0,2,0.6,2,1.4
		v0.5c0,0.1,0,0.1-0.1,0.1h-0.3c-0.1,0-0.1,0-0.1-0.1v-0.4c0-0.6-0.3-1-1.5-1c-1.2,0-1.5,0.4-1.5,1v4c0,0.6,0.3,1,1.5,1
		c1.2,0,1.5-0.4,1.5-1v-0.6c0-0.1,0-0.1,0.1-0.1h0.3c0.1,0,0.1,0,0.1,0.1V54.1z"/>
	<path id="XMLID_88_" class="st2" d="M258.6,55.5c-0.1,0-0.1,0-0.1-0.1v-6.6c0-0.1,0-0.1,0.1-0.1h3.4c0.1,0,0.1,0,0.1,0.1V49
		c0,0.1,0,0.1-0.1,0.1h-3v2.5h2.8c0.1,0,0.1,0,0.1,0.1V52c0,0.1,0,0.1-0.1,0.1H259V55h3.1c0.1,0,0.1,0,0.1,0.1v0.2
		c0,0.1,0,0.1-0.1,0.1H258.6z"/>
	<path id="XMLID_90_" class="st2" d="M271.8,48.7c0.1,0,0.1,0,0.2,0.1l2,6.6c0,0.1,0,0.1-0.1,0.1h-0.3c-0.1,0-0.1,0-0.1-0.1
		l-0.6-1.9h-2.4l-0.6,1.9c0,0.1-0.1,0.1-0.1,0.1h-0.3c-0.1,0-0.1,0-0.1-0.1l2-6.6c0-0.1,0.1-0.1,0.1-0.1H271.8z M270.6,46.8
		c0-0.1,0-0.1,0.1-0.1h0.3c0.1,0,0.1,0,0.2,0.1l0.7,1.2c0,0.1,0,0.1,0,0.1h-0.2c-0.1,0-0.1,0-0.1-0.1L270.6,46.8z M271.9,50.3
		c-0.1-0.3-0.2-0.9-0.2-1c0,0.1-0.1,0.7-0.2,1l-0.8,2.7h2.2L271.9,50.3z"/>
	<path id="XMLID_94_" class="st2" d="M283,55.5c-0.1,0-0.1,0-0.1-0.1l-2-6.6c0-0.1,0-0.1,0.1-0.1h0.3c0.1,0,0.1,0,0.1,0.1l1.6,5
		c0.1,0.3,0.2,0.9,0.2,0.9s0.1-0.6,0.2-0.9l1.6-5.1c0-0.1,0-0.1,0.1-0.1h0.3c0.1,0,0.1,0,0.1,0.1l-2,6.6c0,0.1-0.1,0.1-0.2,0.1H283z
		"/>
	<path id="XMLID_96_" class="st2" d="M288.6,50c0-0.8,0.5-1.4,2.1-1.4c1.6,0,2.1,0.6,2.1,1.4v4.1c0,0.8-0.5,1.4-2.1,1.4
		c-1.6,0-2.1-0.6-2.1-1.4V50z M292.2,50.1c0-0.6-0.4-1-1.6-1c-1.2,0-1.5,0.4-1.5,1v4c0,0.6,0.4,1,1.5,1c1.2,0,1.6-0.4,1.6-1V50.1z"
		/>
	<path id="XMLID_99_" class="st2" d="M297,54c0,0.6,0.4,1,1.6,1s1.6-0.4,1.6-1v-5.3c0-0.1,0-0.1,0.1-0.1h0.3c0.1,0,0.1,0,0.1,0.1
		v5.3c0,0.8-0.5,1.4-2.1,1.4c-1.6,0-2.1-0.6-2.1-1.4v-5.3c0-0.1,0-0.1,0.1-0.1h0.3c0.1,0,0.1,0,0.1,0.1V54z"/>
	<path id="XMLID_101_" class="st2" d="M307.9,50c0-0.6-0.3-1-1.5-1s-1.5,0.4-1.5,1v0.4c0,0.5,0.4,0.7,0.6,0.8l1.9,0.7
		c0.5,0.2,1,0.6,1,1.2v0.9c0,0.8-0.5,1.4-2.1,1.4c-1.6,0-2.1-0.6-2.1-1.4v-0.5c0-0.1,0-0.1,0.1-0.1h0.3c0.1,0,0.1,0,0.1,0.1v0.5
		c0,0.6,0.4,1,1.5,1c1.2,0,1.6-0.4,1.6-1v-0.7c0-0.5-0.4-0.8-0.8-0.9l-1.9-0.7c-0.4-0.1-0.9-0.5-0.9-1.2V50c0-0.8,0.4-1.4,2-1.4
		c1.6,0,2,0.6,2,1.4v0.5c0,0.1,0,0.1-0.1,0.1H308c-0.1,0-0.1,0-0.1-0.1V50z"/>
</g>
</svg>
