<?xml version="1.0" encoding="UTF-8" standalone="no"?>
<svg width="17px" height="14px" viewBox="0 0 17 14" version="1.1" xmlns="http://www.w3.org/2000/svg" xmlns:xlink="http://www.w3.org/1999/xlink">
    <!-- Generator: Sketch 3.8.3 (29802) - http://www.bohemiancoding.com/sketch -->
    <title>icon-twitter</title>
    <desc>Created with Sketch.</desc>
    <defs></defs>
    <g id="Page-1" stroke="none" stroke-width="1" fill="none" fill-rule="evenodd">
        <path d="M17.037,1.64 C16.411,1.918 15.736,2.106 15.03,2.191 C15.752,1.758 16.306,1.073 16.566,0.257 C15.891,0.658 15.144,0.948 14.346,1.104 C13.71,0.425 12.801,0 11.795,0 C9.866,0 8.301,1.567 8.301,3.496 C8.301,3.771 8.331,4.036 8.391,4.292 C5.486,4.146 2.911,2.756 1.186,0.639 C0.885,1.158 0.713,1.758 0.713,2.399 C0.713,3.61 1.33,4.681 2.268,5.308 C1.695,5.29 1.156,5.132 0.684,4.871 L0.684,4.914 C0.684,6.609 1.889,8.022 3.489,8.342 C3.195,8.424 2.887,8.465 2.567,8.465 C2.342,8.465 2.123,8.445 1.91,8.404 C2.354,9.791 3.645,10.803 5.175,10.83 C3.979,11.768 2.471,12.326 0.834,12.326 C0.552,12.326 0.273,12.311 0,12.279 C1.547,13.27 3.384,13.849 5.358,13.849 C11.788,13.849 15.303,8.523 15.303,3.902 C15.303,3.75 15.3,3.599 15.293,3.45 C15.976,2.956 16.57,2.341 17.037,1.64" id="icon-twitter" fill="#595959"></path>
    </g>
</svg>